<svg preserveAspectRatio="none" overflow="visible" style="display:block" width="100" height="100" viewBox="0 0 100 100" fill="none" xmlns="http://www.w3.org/2000/svg">
  <path d="M30.3977 0H25.8523C23.3419 0 21.3068 2.03507 21.3068 4.54547V18.1818C21.3068 20.6922 23.3419 22.7273 25.8523 22.7273H30.3977C32.9081 22.7273 34.9431 20.6922 34.9431 18.1818V4.54547C34.9431 2.03507 32.9081 0 30.3977 0Z" fill="#673EDA"/>
  <path d="M71.3069 0H66.7612C64.2509 0 62.2159 2.03507 62.2159 4.54547V18.1818C62.2159 20.6922 64.2509 22.7273 66.7612 22.7273H71.3069C73.8172 22.7273 75.8522 20.6922 75.8522 18.1818V4.54547C75.8522 2.03507 73.8172 0 71.3069 0Z" fill="#673EDA"/>
  <path d="M3.125 36.3638H94.0341V18.1818C94.0341 13.1611 89.9641 9.09091 84.9431 9.09091H12.2159C7.19516 9.09091 3.125 13.1611 3.125 18.1818V36.3638Z" fill="#673EDA"/>
  <path fill-rule="evenodd" clip-rule="evenodd" d="M12.2159 100C7.19516 100 3.125 95.93 3.125 90.9091V36.3638H94.0341V90.9091C94.0341 95.93 89.9641 100 84.9431 100H12.2159ZM35.5622 59.7103L46.9259 71.0741L67.3803 50.6194C69.6531 48.3466 74.1984 52.8925 71.9259 55.165C71.4419 55.6487 70.0844 57.06 68.2356 58.9819C61.4019 66.0856 47.8584 80.165 46.9259 80.165C46.0369 80.165 38.8025 72.4856 34.2868 67.6922C32.7849 66.0981 31.5838 64.8228 31.0168 64.2559C28.745 61.9834 33.2897 57.4378 35.5622 59.7103Z" fill="url(#paint0_linear)"/>
  <defs><linearGradient id="paint0_linear" x1="48.5797" y1="36.3638" x2="48.5797" y2="100" gradientUnits="userSpaceOnUse"><stop stop-color="#DDCEFF"/><stop offset="1" stop-color="#673EDA"/></linearGradient></defs>
</svg>
