<svg preserveAspectRatio="none" overflow="visible" style="display: block;" width="17" height="17" viewBox="0 0 17 17" fill="none" xmlns="http://www.w3.org/2000/svg">
<path id="star_favorite-[]" fill-rule="evenodd" clip-rule="evenodd" d="M14.2125 10.3751C13.8496 10.7431 13.6847 11.2736 13.7697 11.7938L14.3179 15.1224C14.4888 16.1585 13.6983 17 12.8015 17C12.5652 17 12.3212 16.9414 12.0849 16.8122L9.21614 15.2405C8.99173 15.1181 8.74608 15.0569 8.49958 15.0569C8.25392 15.0569 8.00827 15.1181 7.78387 15.2405L4.91507 16.8122C4.67877 16.9414 4.43481 17 4.19851 17C3.30175 17 2.51124 16.1585 2.68209 15.1224L3.23035 11.7938C3.31535 11.2736 3.15045 10.7431 2.78749 10.3751L0.466105 8.01805C-0.446809 7.0907 0.0572511 5.47485 1.31867 5.2836L4.52662 4.79825C5.02812 4.7226 5.46163 4.39451 5.68518 3.92106L7.12 0.893346C7.40221 0.297496 7.95132 0 8.49958 0C9.04868 0 9.59779 0.297496 9.88 0.893346L11.3148 3.92106C11.5384 4.39451 11.9719 4.7226 12.4734 4.79825L15.6813 5.2836C16.9428 5.47485 17.4468 7.0907 16.5339 8.01805L14.2125 10.3751Z" fill="#FFC478"/>
</svg>
