<svg preserveAspectRatio="none" overflow="visible" style="display: block;" width="50" height="50" viewBox="0 0 50 50" fill="none" xmlns="http://www.w3.org/2000/svg">
<g id="Frame 126">
<circle id="Ellipse 7" cx="25" cy="25" r="25" fill="#D9D9D9"/>
<path id="Arrow 5" d="M18 23.5C18.8284 23.5 19.5 24.1716 19.5 25C19.5 25.8284 18.8284 26.5 18 26.5V25V23.5ZM16.9392 26.0607C16.3535 25.4749 16.3535 24.5251 16.9392 23.9393L26.4852 14.3934C27.071 13.8076 28.0207 13.8076 28.6065 14.3934C29.1923 14.9792 29.1923 15.9289 28.6065 16.5147L20.1212 25L28.6065 33.4853C29.1923 34.0711 29.1923 35.0208 28.6065 35.6066C28.0207 36.1924 27.071 36.1924 26.4852 35.6066L16.9392 26.0607ZM18 25V26.5H17.9999V25V23.5H18V25Z" fill="white"/>
</g>
</svg>
