<svg preserveAspectRatio="none" width="100%" height="100%" overflow="visible" style="display: block;" viewBox="0 0 12.9969 13.45" fill="none" xmlns="http://www.w3.org/2000/svg">
<g id="attach">
<path id="Vector" fill-rule="evenodd" clip-rule="evenodd" d="M6.35238 10.3123L8.33233 8.33233L10.3123 6.35238C10.7585 5.89149 10.8273 5.18361 10.4784 4.64536C10.1408 4.06082 9.53442 3.6826 8.86089 3.63645C7.9527 3.65452 6.91365 3.83702 6.26544 3.18881L3.90417 0.826642C3.47942 0.396211 2.78651 0.390434 2.35465 0.81373L0.81373 2.35206C0.390434 2.78393 0.396211 3.47684 0.826643 3.90159L3.18881 6.2663C3.83702 6.91451 3.65366 7.95356 3.63645 8.86175C3.68288 9.53493 4.06106 10.141 4.64532 10.4784C5.18361 10.8273 5.89149 10.7585 6.35238 10.3123Z" fill="var(--fill-0, #AEAEAE)" stroke="var(--stroke-0, #AEAEAE)" stroke-linecap="round" stroke-linejoin="round"/>
<g id="Vector_2">
<path d="M8.29688 8.75L12.4969 12.95Z" fill="var(--fill-0, #AEAEAE)"/>
<path d="M8.29688 8.75L12.4969 12.95" stroke="var(--stroke-0, #AEAEAE)" stroke-linecap="round"/>
</g>
</g>
</svg>
