<svg preserveAspectRatio="none" width="100%" height="100%" overflow="visible" style="display: block;" viewBox="0 0 21 21" fill="none" xmlns="http://www.w3.org/2000/svg">
<path id="Vector" d="M14.1265 9.21571L8.71028 15.0005C8.25092 15.5138 7.59704 15.8107 6.90808 15.8187C6.21919 15.8267 5.55858 15.545 5.08732 15.0426C4.04627 13.9559 4.06375 12.2368 5.12668 11.1716L12.4012 3.39291C13.2037 2.49969 14.3457 1.98644 15.5465 1.97947C16.7472 1.97249 17.8952 2.47242 18.7079 3.35627C20.4416 5.2719 20.4292 8.19298 18.6793 10.0939L10.9664 18.334C9.86872 19.4357 8.36617 20.0375 6.81139 19.9982C5.2566 19.959 3.7864 19.2821 2.74573 18.1263C0.367024 15.4435 0.425869 11.39 2.88147 8.7773L10.1668 1" stroke="var(--stroke-0, #7449EE)" stroke-width="2" stroke-linecap="round" stroke-linejoin="round"/>
</svg>
