<svg xmlns="http://www.w3.org/2000/svg" width="20" height="19" viewBox="0 0 20 19" fill="none">
  <path fill-rule="evenodd" clip-rule="evenodd" d="M16.7206 11.5957C16.2936 12.007 16.0996 12.5998 16.1996 13.1812L16.8446 16.9014C17.0456 18.0595 16.1156 19 15.0606 19C14.7826 19 14.4956 18.9345 14.2176 18.7901L10.8425 17.0335C10.5785 16.8967 10.2895 16.8283 9.9995 16.8283C9.7105 16.8283 9.42149 16.8967 9.15749 17.0335L5.78244 18.7901C5.50443 18.9345 5.21743 19 4.93942 19C3.88441 19 2.9544 18.0595 3.1554 16.9014L3.80041 13.1812C3.90041 12.5998 3.70641 12.007 3.2794 11.5957L0.548358 8.96135C-0.525658 7.9249 0.0673542 6.11895 1.55138 5.9052L5.32543 5.36275C5.91544 5.2782 6.42545 4.91151 6.68845 4.38236L8.37648 0.998445C8.70848 0.332495 9.35449 0 9.9995 0C10.6455 0 11.2915 0.332495 11.6235 0.998445L13.3116 4.38236C13.5746 4.91151 14.0846 5.2782 14.6746 5.36275L18.4486 5.9052C19.9326 6.11895 20.5257 7.9249 19.4516 8.96135L16.7206 11.5957Z" fill="#FFB447"/>
</svg>
