<svg preserveAspectRatio="none" width="100%" height="100%" overflow="visible" style="display: block;" viewBox="0 0 20 20" fill="none" xmlns="http://www.w3.org/2000/svg">
<g id="Frame 203">
<rect x="1" y="1" width="18" height="18" rx="9" fill="var(--fill-0, #FFC478)"/>
<rect x="1" y="1" width="18" height="18" rx="9" stroke="var(--stroke-0, #673EDA)" stroke-width="2"/>
<path id="Vector" d="M12.496 9.41655C13.5106 8.94217 13.466 7.33519 14.4711 7.3983C13.0561 6.45846 13.0925 8.46368 11.3534 7.82191C11.7331 6.76957 10.5672 5.66577 11.3222 5C9.65681 5.3358 11.1009 6.72841 9.4167 7.50429C8.94196 6.48968 7.33527 6.53427 7.39838 5.52926C6.45851 6.94416 8.46379 6.9078 7.82201 8.64684C6.76963 8.26713 5.6658 9.43301 5 8.67805C5.33581 10.3433 6.72847 8.89929 7.50437 10.5835C6.48973 11.0582 6.53432 12.6648 5.52928 12.6017C6.94423 13.5415 6.90787 11.5363 8.64697 12.1781C8.26725 13.2304 9.43316 14.3342 8.67818 15C10.3435 14.6642 8.89943 13.2716 10.5836 12.4957C11.0584 13.5103 12.6651 13.4657 12.602 14.4707C13.5418 13.0558 11.5365 13.0922 12.1783 11.3532C13.2307 11.7329 14.3345 10.567 15 11.3219C14.6642 9.65665 13.2715 11.1007 12.4956 9.41655H12.496Z" fill="var(--fill-0, white)"/>
</g>
</svg>
