<svg preserveAspectRatio="none" width="100%" height="100%" overflow="visible" style="display: block;" viewBox="0 0 580 780" fill="none" xmlns="http://www.w3.org/2000/svg">
<foreignObject x="0" y="0" width="580" height="780"><div xmlns="http://www.w3.org/1999/xhtml" style="backdrop-filter:blur(5.15px);clip-path:url(#bgblur_0_0_25_clip_path);height:100%;width:100%"></div></foreignObject><g id="Rectangle 11" filter="url(#filter0_d_0_25)" data-figma-bg-blur-radius="10.3">
<path d="M40 96C40 62.8629 66.8629 36 100 36H480C513.137 36 540 62.8629 540 96V676C540 709.137 513.137 736 480 736H100C66.8629 736 40 709.137 40 676V96Z" fill="var(--fill-0, #D9D9D9)" fill-opacity="0.93" shape-rendering="crispEdges"/>
</g>
<defs>
<filter id="filter0_d_0_25" x="0" y="0" width="580" height="780" filterUnits="userSpaceOnUse" color-interpolation-filters="sRGB">
<feFlood flood-opacity="0" result="BackgroundImageFix"/>
<feColorMatrix in="SourceAlpha" type="matrix" values="0 0 0 0 0 0 0 0 0 0 0 0 0 0 0 0 0 0 127 0" result="hardAlpha"/>
<feOffset dy="4"/>
<feGaussianBlur stdDeviation="20"/>
<feComposite in2="hardAlpha" operator="out"/>
<feColorMatrix type="matrix" values="0 0 0 0 0 0 0 0 0 0 0 0 0 0 0 0 0 0 0.25 0"/>
<feBlend mode="normal" in2="BackgroundImageFix" result="effect1_dropShadow_0_25"/>
<feBlend mode="normal" in="SourceGraphic" in2="effect1_dropShadow_0_25" result="shape"/>
</filter>
<clipPath id="bgblur_0_0_25_clip_path" transform="translate(0 0)"><path d="M40 96C40 62.8629 66.8629 36 100 36H480C513.137 36 540 62.8629 540 96V676C540 709.137 513.137 736 480 736H100C66.8629 736 40 709.137 40 676V96Z"/>
</clipPath></defs>
</svg>
