<svg xmlns="http://www.w3.org/2000/svg" style="display:none">
  <symbol id="icon-star" viewBox="0 0 20 19">
<path fill-rule="evenodd" clip-rule="evenodd"
                                                    d="M16.7206 11.5957C16.2936 12.007 16.0996 12.5998 16.1996 13.1812L16.8446 16.9014C17.0456 18.0595 16.1156 19 15.0606 19C14.7826 19 14.4956 18.9345 14.2176 18.7901L10.8425 17.0335C10.5785 16.8967 10.2895 16.8283 9.9995 16.8283C9.7105 16.8283 9.42149 16.8967 9.15749 17.0335L5.78244 18.7901C5.50443 18.9345 5.21743 19 4.93942 19C3.88441 19 2.9544 18.0595 3.1554 16.9014L3.80041 13.1812C3.90041 12.5998 3.70641 12.007 3.2794 11.5957L0.548358 8.96135C-0.525658 7.9249 0.0673542 6.11895 1.55138 5.9052L5.32543 5.36275C5.91544 5.2782 6.42545 4.91151 6.68845 4.38236L8.37648 0.998445C8.70848 0.332495 9.35449 0 9.9995 0C10.6455 0 11.2915 0.332495 11.6235 0.998445L13.3116 4.38236C13.5746 4.91151 14.0846 5.2782 14.6746 5.36275L18.4486 5.9052C19.9326 6.11895 20.5257 7.9249 19.4516 8.96135L16.7206 11.5957Z"
                                                    fill="currentColor" />
  </symbol>
  <symbol id="icon-expert-badge" viewBox="0 0 19 19">
<path
                                                d="M9.50005 10.4466C10.9912 10.4466 12.2 9.1477 12.2 7.54544C12.2 5.94318 10.9912 4.64429 9.50005 4.64429C8.00888 4.64429 6.80005 5.94318 6.80005 7.54544C6.80005 9.1477 8.00888 10.4466 9.50005 10.4466Z"
                                                stroke="currentColor" stroke-linecap="round" stroke-linejoin="round" />
                                            <path
                                                d="M3.42355 11.2756L0.5 14.8367L3.67503 15.6399L5.64502 17.9068L8.6 14.319"
                                                stroke="currentColor" stroke-linecap="round" stroke-linejoin="round" />
                                            <path
                                                d="M15.5765 11.2756L18.5 14.8367L15.325 15.6399L13.355 17.9068L10.4 14.319"
                                                stroke="currentColor" stroke-linecap="round" stroke-linejoin="round" />
                                            <path
                                                d="M16.7 7.1312C16.7 7.85151 16.0374 8.45809 15.8198 9.10258C15.6022 9.74708 15.7506 10.6285 15.3253 11.1877C14.9 11.7469 13.9902 11.8701 13.4561 12.2871C12.922 12.7042 12.4671 13.4813 11.7748 13.6993C11.0825 13.9173 10.3011 13.5003 9.5495 13.5003C8.79785 13.5003 7.99675 13.9078 7.32422 13.6993C6.6517 13.4908 6.22642 12.6852 5.64291 12.2871C5.05939 11.8891 4.1495 11.7469 3.72422 11.1877C3.29895 10.6285 3.45719 9.76603 3.22972 9.10258C3.00225 8.43914 2.30005 7.85151 2.30005 7.1312C2.30005 6.41089 2.96269 5.80431 3.18027 5.15981C3.39785 4.51532 3.2495 3.63389 3.67477 3.07469C4.10005 2.5155 5.00994 2.39229 5.59346 1.97527C6.17697 1.55824 6.53302 0.781064 7.27477 0.563074C8.01653 0.345084 8.7484 0.762108 9.50005 0.762108C10.2517 0.762108 11.0528 0.354562 11.7253 0.563074C12.3979 0.771586 12.8231 1.5772 13.4561 1.97527C14.0891 2.37334 14.9495 2.5155 15.3748 3.07469C15.8 3.63389 15.6418 4.49637 15.8693 5.15981C16.0968 5.82326 16.7 6.41089 16.7 7.1312Z"
                                                stroke="currentColor" stroke-linecap="round" stroke-linejoin="round" />
  </symbol>
  <symbol id="icon-expert-help" viewBox="0 0 19 18">
<path
                                                d="M8.47562 1.63008C8.93156 0.876694 9.15962 0.5 9.50045 0.5C9.84128 0.5 10.0693 0.876694 10.5253 1.63008L10.6433 1.82499C10.7729 2.03908 10.8377 2.14612 10.9387 2.21675C11.0397 2.28738 11.1655 2.3136 11.4171 2.36604L11.6462 2.41377C12.5317 2.5983 12.9745 2.69056 13.0798 3.00253C13.1851 3.3145 12.8833 3.63957 12.2797 4.28971L12.1234 4.45791C11.9519 4.64265 11.8661 4.73503 11.8276 4.84932C11.789 4.9636 11.8019 5.08684 11.8279 5.33334L11.8514 5.55775C11.9427 6.42518 11.9884 6.85889 11.7126 7.0517C11.4368 7.24451 11.0223 7.06872 10.1932 6.71714L9.97871 6.62618C9.74309 6.52627 9.62528 6.47632 9.50045 6.47632C9.37562 6.47632 9.25781 6.52627 9.02219 6.62618L8.80772 6.71714C7.97864 7.06872 7.56407 7.24451 7.28831 7.0517C7.01254 6.85889 7.05817 6.42518 7.14944 5.55775L7.17304 5.33334C7.19898 5.08684 7.21195 4.9636 7.17337 4.84932C7.13477 4.73503 7.049 4.64265 6.87746 4.45791L6.72129 4.28971C6.11762 3.63957 5.81579 3.3145 5.92112 3.00253C6.02646 2.69056 6.4692 2.5983 7.35468 2.41377L7.58377 2.36604C7.83536 2.3136 7.96118 2.28738 8.06225 2.21675C8.16323 2.14612 8.22803 2.03908 8.35763 1.82499L8.47562 1.63008Z"
                                                stroke="currentColor" />
                                            <path
                                                d="M16.188 5.20982C16.4161 4.83313 16.53 4.64478 16.7005 4.64478C16.871 4.64478 16.9849 4.83312 17.213 5.20981L17.2719 5.30727C17.3367 5.41432 17.3691 5.46784 17.4196 5.50315C17.4701 5.53847 17.533 5.55158 17.6588 5.57779L17.7734 5.60167C18.2161 5.69392 18.4375 5.74005 18.4901 5.89604C18.5428 6.05202 18.392 6.21456 18.0901 6.53963L18.012 6.62373C17.9262 6.71611 17.8834 6.76229 17.864 6.81943C17.8448 6.87657 17.8512 6.93819 17.8642 7.06144L17.876 7.17367C17.9216 7.60735 17.9445 7.82419 17.8066 7.92059C17.6687 8.01699 17.4614 7.92913 17.0469 7.75332L16.9396 7.70789C16.8218 7.65791 16.763 7.63296 16.7005 7.63296C16.638 7.63296 16.5792 7.65791 16.4614 7.70789L16.3541 7.75332C15.9395 7.92913 15.7323 8.01699 15.5944 7.92059C15.4565 7.82419 15.4794 7.60735 15.525 7.17367L15.5368 7.06144C15.5498 6.93819 15.5562 6.87657 15.537 6.81943C15.5176 6.76229 15.4748 6.71611 15.389 6.62373L15.3109 6.53963C15.009 6.21456 14.8582 6.05202 14.9108 5.89604C14.9635 5.74005 15.1849 5.69392 15.6276 5.60167L15.7422 5.57779C15.868 5.55158 15.9309 5.53847 15.9814 5.50315C16.0319 5.46784 16.0643 5.41432 16.1291 5.30727L16.188 5.20982Z"
                                                stroke="currentColor" />
                                            <path
                                                d="M1.78806 5.20982C2.01606 4.83313 2.13006 4.64478 2.30049 4.64478C2.47093 4.64478 2.58493 4.83312 2.81293 5.20981L2.87191 5.30727C2.9367 5.41432 2.96909 5.46784 3.0196 5.50315C3.07011 5.53847 3.13302 5.55158 3.25883 5.57779L3.37337 5.60167C3.81612 5.69392 4.03749 5.74005 4.09016 5.89604C4.14283 6.05202 3.99191 6.21456 3.69008 6.53963L3.61199 6.62373C3.52621 6.71611 3.48333 6.76229 3.46404 6.81943C3.44474 6.87657 3.45123 6.93819 3.46419 7.06144L3.476 7.17367C3.52163 7.60735 3.54446 7.82419 3.40657 7.92059C3.26868 8.01699 3.06142 7.92913 2.64688 7.75332L2.53962 7.70789C2.42182 7.65791 2.36293 7.63296 2.30049 7.63296C2.23806 7.63296 2.17916 7.65791 2.06136 7.70789L1.95411 7.75332C1.53958 7.92913 1.33231 8.01699 1.19442 7.92059C1.05653 7.82419 1.07935 7.60735 1.12498 7.17367L1.13679 7.06144C1.14976 6.93819 1.15624 6.87657 1.13695 6.81943C1.11766 6.76229 1.07477 6.71611 0.988994 6.62373L0.91091 6.53963C0.609077 6.21456 0.458156 6.05202 0.510824 5.89604C0.563492 5.74005 0.784865 5.69392 1.22761 5.60167L1.34215 5.57779C1.46797 5.55158 1.53088 5.53847 1.58138 5.50315C1.63189 5.46784 1.66429 5.41432 1.72907 5.30727L1.78806 5.20982Z"
                                                stroke="currentColor" />
                                            <path
                                                d="M3.2005 15.7424H5.23444C6.14421 15.7424 7.06378 15.8297 7.94917 15.9977C9.51544 16.2948 11.1644 16.3308 12.7467 16.095C13.5269 15.9786 14.2939 15.8008 14.9883 15.4921C15.615 15.2135 16.3827 14.8208 16.8984 14.3809C17.4134 13.9417 17.9497 13.2228 18.3303 12.6608C18.6567 12.1789 18.4989 11.5878 17.9826 11.2287C17.4091 10.8299 16.558 10.83 15.9846 11.2289L14.3582 12.3605C13.7278 12.799 13.0393 13.2027 12.219 13.3232C12.1204 13.3377 12.0171 13.3509 11.9093 13.3624M11.9093 13.3624C11.8768 13.3659 11.8439 13.3692 11.8106 13.3724M11.9093 13.3624C12.0405 13.3366 12.1707 13.262 12.293 13.1638C12.8719 12.6984 12.9084 11.9142 12.4062 11.3946C12.2897 11.274 12.1533 11.1735 12.0017 11.0902C9.48403 9.70716 5.56698 10.7605 3.2005 12.3062M11.9093 13.3624C11.8764 13.3689 11.8435 13.3724 11.8106 13.3724M11.8106 13.3724C11.3396 13.4169 10.7886 13.4284 10.1771 13.3752"
                                                stroke="currentColor" stroke-linecap="round" />
                                            <path
                                                d="M3.20049 11.6904C3.20049 11.0037 2.59607 10.447 1.85049 10.447C1.1049 10.447 0.500488 11.0037 0.500488 11.6904V15.8349C0.500488 16.5216 1.1049 17.0782 1.85049 17.0782C2.59607 17.0782 3.20049 16.5216 3.20049 15.8349V11.6904Z"
                                                stroke="currentColor" />
  </symbol>
  <symbol id="icon-chat" viewBox="0 0 22 21">
<path
                                                    d="M11 19.42C16.5228 19.42 21 15.2965 21 10.21C21 5.12346 16.5228 1 11 1C5.47715 1 1 5.12346 1 10.21C1 11.6833 1.37562 13.0758 2.04346 14.3108C2.22094 14.6389 2.28001 15.014 2.17712 15.3682L1.58151 17.4184C1.32295 18.3084 2.20701 19.1225 3.17335 18.8844L5.39939 18.3359C5.78393 18.2411 6.19121 18.2956 6.54753 18.4589C7.88837 19.0741 9.4003 19.42 11 19.42Z"
                                                    stroke="currentColor" stroke-width="2" />
                                                <path d="M7.00002 10.21H7.00902M10.991 10.21H11M14.991 10.21H15"
                                                    stroke="currentColor" stroke-width="3" stroke-linecap="round"
                                                    stroke-linejoin="round" />
  </symbol>
  <symbol id="icon-star-brand" viewBox="0 0 24 23">
<path
                                        d="M10.1416 1.23413C10.8237 -0.411393 13.1546 -0.411391 13.8367 1.23413L15.6511 5.61125C15.9426 6.31444 16.608 6.79119 17.3676 6.84108L22.1064 7.15236C23.9225 7.27165 24.6483 9.5576 23.2336 10.7026L19.6859 13.5741C19.0761 14.0677 18.8112 14.8721 19.0084 15.6314L20.1537 20.0418C20.6052 21.7805 18.7135 23.1868 17.1786 22.2533L13.0284 19.7292C12.39 19.3409 11.5883 19.3409 10.9499 19.7292L6.79964 22.2533C5.26481 23.1868 3.37306 21.7805 3.82459 20.0418L4.96991 15.6314C5.16709 14.8721 4.90216 14.0677 4.2924 13.5741L0.744696 10.7026C-0.669991 9.5576 0.0557809 7.27165 1.87189 7.15236L6.61069 6.84108C7.37027 6.79119 8.03566 6.31444 8.32715 5.61124L10.1416 1.23413Z"
                                        fill="currentColor" />
  </symbol>
  <symbol id="icon-arrow-prev" viewBox="0 0 31 15">
<path
                                        d="M8.07129 0.292745C7.68086 -0.0976805 7.04777 -0.0974828 6.65723 0.292745L0.292969 6.657C-0.0975552 7.04753 -0.0975552 7.68054 0.292969 8.07106L6.65723 14.4353C7.04777 14.8256 7.68086 14.8257 8.07129 14.4353C8.46171 14.0449 8.46152 13.4118 8.07129 13.0213L3.41406 8.36403H31V6.36403H3.41406L8.07129 1.70681C8.46152 1.31626 8.46171 0.68317 8.07129 0.292745Z"
                                        fill="currentColor" />
  </symbol>
  <symbol id="icon-arrow-next" viewBox="0 0 31 15">
<path
                                        d="M22.9287 0.292745C23.3191 -0.0976805 23.9522 -0.0974828 24.3428 0.292745L30.707 6.657C31.0976 7.04753 31.0976 7.68054 30.707 8.07106L24.3428 14.4353C23.9522 14.8256 23.3191 14.8257 22.9287 14.4353C22.5383 14.0449 22.5385 13.4118 22.9287 13.0213L27.5859 8.36403H0V6.36403H27.5859L22.9287 1.70681C22.5385 1.31626 22.5383 0.68317 22.9287 0.292745Z"
                                        fill="currentColor" />
  </symbol>
  <symbol id="icon-sparkle" viewBox="0 0 47 58">
<path
                                                d="M26.7739 21.5044C26.9948 22.4864 27.6935 23.2921 28.6343 23.6499L42.5581 28.9438L28.6343 34.2378C27.7524 34.5732 27.0831 35.3019 26.8208 36.2007L26.7739 36.3833L23.186 52.3315L19.5981 36.3833L19.5513 36.2007C19.2889 35.3019 18.6197 34.5732 17.7378 34.2378L3.81299 28.9438L17.7378 23.6499C18.6786 23.2921 19.3772 22.4864 19.5981 21.5044L23.186 5.55518L26.7739 21.5044Z"
                                                stroke="currentColor" stroke-width="4" />
  </symbol>
</svg>
