<svg preserveAspectRatio="none" overflow="visible" style="display: block;" width="21" height="21" viewBox="0 0 21 21" fill="none" xmlns="http://www.w3.org/2000/svg">
<g id="emoji">
<path id="Vector" d="M6.42868 13.2143C6.67474 13.8553 7.07795 14.4242 7.60125 14.8686C9.26551 16.2655 11.6873 16.2832 13.3718 14.9107C13.9023 14.4741 14.3149 13.9113 14.5715 13.274" stroke="#AEAEAE" stroke-width="2" stroke-linecap="round" stroke-linejoin="round"/>
<path id="Vector_2" fill-rule="evenodd" clip-rule="evenodd" d="M20 10.5C20 15.7467 15.7467 20 10.5 20C5.2533 20 1 15.7467 1 10.5C1 5.2533 5.2533 1 10.5 1C13.0195 1 15.4359 2.00089 17.2174 3.78248C18.9991 5.56408 20 7.98046 20 10.5Z" stroke="#AEAEAE" stroke-width="2" stroke-linecap="round" stroke-linejoin="round"/>
<path id="Vector_3" d="M6.42868 9.14285V7.78571" stroke="#AEAEAE" stroke-width="2" stroke-linecap="round"/>
<path id="Vector_4" d="M14.5715 9.14285V7.78571" stroke="#AEAEAE" stroke-width="2" stroke-linecap="round"/>
</g>
</svg>
